<?xml version="1.0" encoding="UTF-8"?>
<svg version="1.1" xmlns="http://www.w3.org/2000/svg" width="341" height="96">
<path d="M0 0 C0.86462357 -0.00807175 1.72924713 -0.01614349 2.62007141 -0.02445984 C4.4516907 -0.03828957 6.28333564 -0.0490167 8.11499023 -0.05688477 C9.97997638 -0.06838603 11.84493009 -0.08880841 13.7097168 -0.1184082 C16.41087108 -0.16128367 19.11104676 -0.17728305 21.8125 -0.1875 C22.63674973 -0.20500809 23.46099945 -0.22251617 24.31022644 -0.24055481 C29.99786825 -0.21950651 34.55003344 0.88898826 39.23828125 4.23828125 C41.28549526 7.30910227 41.91896079 9.20709396 41.78515625 12.88671875 C39.54272519 22.52917231 29.02476633 30.86510713 22.21484375 37.5625 C21.68971191 38.07901123 21.16458008 38.59552246 20.62353516 39.12768555 C19.23828125 40.23828125 19.23828125 40.23828125 17.23828125 40.23828125 C17.23828125 40.89828125 17.23828125 41.55828125 17.23828125 42.23828125 C15.734375 43.71875 15.734375 43.71875 13.67578125 45.42578125 C10.12831951 48.42505618 6.87305253 51.57823257 3.68359375 54.953125 C2.23828125 56.23828125 2.23828125 56.23828125 0.23828125 56.23828125 C-0.09171875 57.22828125 -0.42171875 58.21828125 -0.76171875 59.23828125 C-1.75171875 59.73328125 -1.75171875 59.73328125 -2.76171875 60.23828125 C-0.15842804 62.84157196 7.18097635 61.4730947 10.67578125 61.48828125 C11.82755859 61.50890625 12.97933594 61.52953125 14.16601562 61.55078125 C20.59490096 61.57995373 26.09039276 61.0892817 32.17358398 58.95288086 C34.81825296 58.03755083 37.46923925 57.60262888 40.23828125 57.23828125 C38.95467978 66.22349154 35.27318404 71.81738541 28.36328125 77.67578125 C21.55035319 81.08224528 14.3668659 81.54755054 6.85546875 81.5390625 C5.56771042 81.54549019 5.56771042 81.54549019 4.25393677 81.55204773 C2.45396806 81.5577483 0.65397634 81.55832316 -1.14599609 81.55395508 C-3.88679286 81.55078116 -6.62652257 81.57435544 -9.3671875 81.59960938 C-11.12630074 81.60188156 -12.88541684 81.60258624 -14.64453125 81.6015625 C-15.45511993 81.61077225 -16.26570862 81.61998199 -17.1008606 81.62947083 C-23.15793806 81.58055263 -28.2997 80.7003 -32.76171875 76.23828125 C-33.45228504 70.42467665 -33.5996182 65.00718009 -31.07421875 59.67578125 C-28.77596688 57.25329955 -26.38484814 55.29931148 -23.76171875 53.23828125 C-22.80364482 52.15191822 -21.86766947 51.0458431 -20.94921875 49.92578125 C-18.18261106 46.60019145 -15.13396675 43.86404822 -11.84765625 41.0625 C-7.44979669 37.21643181 -3.26216151 33.13590003 0.36328125 28.55078125 C1.97752181 26.55988456 3.45650753 25.15227099 5.42578125 23.55078125 C8.25475358 21.54437874 8.25475358 21.54437874 9.23828125 19.23828125 C-5.42396118 19.65844432 -18.41354546 20.59790211 -31.76171875 27.23828125 C-33.1485302 23.65568501 -32.6624769 21.35645164 -31.26171875 17.92578125 C-27.26820374 9.77575062 -22.63271245 4.92031789 -13.99609375 1.9296875 C-12.89007812 1.58744141 -12.89007812 1.58744141 -11.76171875 1.23828125 C-7.84468203 -0.06739766 -4.08566662 0.03617162 0 0 Z " fill="#566AFA" transform="translate(40.76171875,11.76171875)"/>
<path d="M0 0 C1.93166016 0.01740234 1.93166016 0.01740234 3.90234375 0.03515625 C5.19269531 0.04417969 6.48304688 0.05320312 7.8125 0.0625 C8.81152344 0.07410156 9.81054688 0.08570312 10.83984375 0.09765625 C11.94094252 3.40095255 11.9667955 5.8470045 11.96923828 9.32568359 C11.97239044 10.61066742 11.9755426 11.89565125 11.97879028 13.21957397 C11.97700001 14.62424758 11.97494894 16.02892087 11.97265625 17.43359375 C11.97333 18.87464413 11.97430062 20.3156944 11.97555542 21.75674438 C11.97702998 24.77794476 11.97488622 27.79911556 11.97021484 30.8203125 C11.96452793 34.68609672 11.9677915 38.55181135 11.97378731 42.417593 C11.97740817 45.39448568 11.97624714 48.37136198 11.97365952 51.34825516 C11.97299394 52.77315911 11.97380575 54.19806457 11.97613907 55.62296677 C11.97868944 57.61892415 11.9741106 59.61488677 11.96923828 61.61083984 C11.96844269 62.74540619 11.96764709 63.87997253 11.96682739 65.04891968 C11.83984375 68.09765625 11.83984375 68.09765625 10.83984375 73.09765625 C6.21984375 73.09765625 1.59984375 73.09765625 -3.16015625 73.09765625 C-3.16015625 71.77765625 -3.16015625 70.45765625 -3.16015625 69.09765625 C-4.25328125 69.73703125 -5.34640625 70.37640625 -6.47265625 71.03515625 C-13.00954537 74.8586197 -20.17013797 75.13316658 -27.55078125 73.6015625 C-32.15650774 72.04581138 -35.03223223 69.74690094 -38.16015625 66.09765625 C-38.88203125 65.29328125 -39.60390625 64.48890625 -40.34765625 63.66015625 C-44.32382937 58.03867011 -44.52470663 52.36861288 -44.53515625 45.72265625 C-44.55964844 44.91054688 -44.58414063 44.0984375 -44.609375 43.26171875 C-44.64581756 35.68166636 -42.16957153 29.87615115 -37.09765625 24.22265625 C-36.61167969 23.66835938 -36.12570313 23.1140625 -35.625 22.54296875 C-31.17437179 18.15168225 -25.21243976 17.03584255 -19.16015625 16.78515625 C-14.05420971 16.90624589 -9.69492364 18.83027256 -5.16015625 21.09765625 C-5.12257202 20.19672241 -5.12257202 20.19672241 -5.08422852 19.27758789 C-4.96860345 16.57154188 -4.84572689 13.86587342 -4.72265625 11.16015625 C-4.68333984 10.21462891 -4.64402344 9.26910156 -4.60351562 8.29492188 C-4.54067383 6.94624023 -4.54067383 6.94624023 -4.4765625 5.5703125 C-4.43990479 4.73765869 -4.40324707 3.90500488 -4.36547852 3.04711914 C-4.0175965 -0.2558986 -3.42571626 0.10586268 0 0 Z M-25.28515625 33.91015625 C-28.60517981 39.55419631 -28.83225122 44.67242837 -28.16015625 51.09765625 C-26.82376619 54.67614149 -24.86925602 57.38855648 -22.16015625 60.09765625 C-15.42465219 61.43644354 -15.42465219 61.43644354 -9.16015625 59.09765625 C-4.35487377 53.89193356 -3.81668323 49.69291859 -3.87109375 42.828125 C-4.27110759 39.04961586 -5.68458741 36.92687778 -8.16015625 34.09765625 C-8.58941406 33.56269531 -9.01867187 33.02773438 -9.4609375 32.4765625 C-12.47377378 30.03166318 -15.7576151 30.51664337 -19.48828125 30.60546875 C-22.41882582 31.14530591 -23.38883747 31.66803817 -25.28515625 33.91015625 Z " fill="#5D6FF8" transform="translate(241.16015625,18.90234375)"/>
<path d="M0 0 C5.51949067 4.920678 8.63955979 8.91867936 11 16 C11 20.95 11 25.9 11 31 C-0.88 31 -12.76 31 -25 31 C-23.68 33.64 -22.36 36.28 -21 39 C-18.22947819 39.92350727 -16.43311242 40.16329585 -13.5625 40.1875 C-12.80066406 40.20167969 -12.03882812 40.21585938 -11.25390625 40.23046875 C-8.7267408 39.97205842 -7.14574968 39.34404101 -5 38 C-4.505 37.01 -4.505 37.01 -4 36 C0.62 36 5.24 36 10 36 C11 39 11 39 9.3125 42.4375 C7.52497353 45.3569204 5.64953683 47.79205264 3 50 C2.34 50 1.68 50 1 50 C1 50.66 1 51.32 1 52 C-8.82374312 55.08195863 -19.56912705 55.59655993 -29 51 C-34.75732358 47.33624863 -38.99760596 41.51445528 -41 35 C-41.33404774 31.89220924 -41.37013825 28.81117756 -41.375 25.6875 C-41.39949219 24.87087891 -41.42398438 24.05425781 -41.44921875 23.21289062 C-41.48557793 15.6077628 -39.02747469 9.79862512 -33.9375 4.125 C-33.45152344 3.57070313 -32.96554688 3.01640625 -32.46484375 2.4453125 C-24.75096757 -5.165712 -9.01461412 -5.43146714 0 0 Z M-23 13 C-23.66 14.98 -24.32 16.96 -25 19 C-18.07 19 -11.14 19 -4 19 C-5.35152097 13.23045122 -5.35152097 13.23045122 -8.1875 11.125 C-13.63558444 8.94576623 -18.47063625 9.11768821 -23 13 Z " fill="#5B6DF7" transform="translate(124,39)"/>
<path d="M0 0 C6.09108056 5.92188388 7.83377009 14.37159473 8.12939453 22.6027832 C8.13108643 24.55704224 8.13108643 24.55704224 8.1328125 26.55078125 C8.13376923 27.25019333 8.13472595 27.94960541 8.13571167 28.67021179 C8.13638809 30.13666881 8.13457157 31.60312892 8.13037109 33.06958008 C8.1249745 35.32314658 8.13035483 37.57651743 8.13671875 39.83007812 C8.13605866 41.25781294 8.13477895 42.68554764 8.1328125 44.11328125 C8.13168457 45.41048096 8.13055664 46.70768066 8.12939453 48.04418945 C8 51 8 51 7 52 C4.48863896 52.09975032 2.01096585 52.13882183 -0.5 52.125 C-1.20253906 52.12886719 -1.90507812 52.13273437 -2.62890625 52.13671875 C-7.87338622 52.12661378 -7.87338622 52.12661378 -9 51 C-9.14775904 48.45515512 -9.23501181 45.93398702 -9.28125 43.38671875 C-9.30886414 42.23777885 -9.30886414 42.23777885 -9.33703613 41.06562805 C-9.39596127 38.60633242 -9.44866619 36.1469651 -9.5 33.6875 C-9.5677566 30.46209611 -9.64152373 27.23690813 -9.71875 24.01171875 C-9.73232544 23.26991867 -9.74590088 22.52811859 -9.7598877 21.76383972 C-9.75806277 16.76614694 -9.75806277 16.76614694 -11 12 C-14.70631721 10.76456093 -18.14726975 10.44073271 -22 11 C-24.67774711 12.85382492 -25.74234924 14.02959165 -26.57788086 17.17651367 C-27.09366352 20.62650003 -27.21914763 24.00086487 -27.31640625 27.48828125 C-27.33718735 28.19147995 -27.35796844 28.89467865 -27.37937927 29.6191864 C-27.44440115 31.85019817 -27.50353776 34.08132069 -27.5625 36.3125 C-27.60573036 37.83139134 -27.64934605 39.35027177 -27.69335938 40.86914062 C-27.80075384 44.57931558 -27.90017767 48.28958277 -28 52 C-32.95 52 -37.9 52 -43 52 C-43 34.18 -43 16.36 -43 -2 C-38.05 -2 -33.1 -2 -28 -2 C-27.67 -1.01 -27.34 -0.02 -27 1 C-26.67 0.54625 -26.34 0.0925 -26 -0.375 C-18.61000317 -6.37937243 -7.6887375 -4.22126765 0 0 Z " fill="#6375F6" transform="translate(184,40)"/>
<path d="M0 0 C1 1 1 1 1.09765625 3.50390625 C1.08605469 4.51324219 1.07445312 5.52257812 1.0625 6.5625 C1.05347656 7.57441406 1.04445313 8.58632813 1.03515625 9.62890625 C1.02355469 10.41136719 1.01195312 11.19382812 1 12 C-2.68890899 13.22963633 -6.13699206 13.55670401 -10 14 C-10.33 15.98 -10.66 17.96 -11 20 C-7.04 20.33 -3.08 20.66 1 21 C1 24.96 1 28.92 1 33 C-3.29 33 -7.58 33 -12 33 C-12 46.86 -12 60.72 -12 75 C-16.95 75 -21.9 75 -27 75 C-27.16740321 69.34017703 -27.32798446 63.68021782 -27.48217773 58.02001953 C-27.53562804 56.09353392 -27.59095971 54.16709958 -27.64819336 52.24072266 C-27.73001986 49.4756984 -27.80513291 46.71056186 -27.87890625 43.9453125 C-27.90594131 43.0806839 -27.93297638 42.2160553 -27.96083069 41.32522583 C-28.11387171 35.22774341 -28.11387171 35.22774341 -27 33 C-28.7015625 33.0309375 -28.7015625 33.0309375 -30.4375 33.0625 C-34 33 -34 33 -35 32 C-35.07226502 30.14712498 -35.0838122 28.29166122 -35.0625 26.4375 C-35.05347656 25.42558594 -35.04445313 24.41367187 -35.03515625 23.37109375 C-35.02355469 22.58863281 -35.01195312 21.80617188 -35 21 C-31.535 20.505 -31.535 20.505 -28 20 C-27.83564453 19.02160156 -27.83564453 19.02160156 -27.66796875 18.0234375 C-25.51914894 6.1787234 -25.51914894 6.1787234 -21.5546875 2.75 C-15.12797652 -1.25626139 -7.28803029 -0.56061771 0 0 Z " fill="#596DF7" transform="translate(293,17)"/>
<path d="M0 0 C0.02526648 7.52969652 0.04283141 15.0593822 0.05493164 22.58911133 C0.0599737 25.15291757 0.06680714 27.71672091 0.07543945 30.28051758 C0.08751064 33.95655021 0.09322942 37.63254498 0.09765625 41.30859375 C0.10281754 42.46274277 0.10797882 43.61689178 0.11329651 44.80601501 C0.11340981 46.3975515 0.11340981 46.3975515 0.11352539 48.02124023 C0.115746 48.96055893 0.11796661 49.89987762 0.12025452 50.86766052 C0 53 0 53 -1 54 C-3.33160055 54.09909302 -5.66629942 54.12970504 -8 54.125 C-9.27875 54.12757812 -10.5575 54.13015625 -11.875 54.1328125 C-15 54 -15 54 -16 53 C-16.09346915 51.34261557 -16.11744977 49.68125356 -16.11352539 48.02124023 C-16.11344986 46.96021591 -16.11337433 45.89919159 -16.11329651 44.80601501 C-16.10813522 43.651866 -16.10297394 42.49771698 -16.09765625 41.30859375 C-16.0962413 40.13361832 -16.09482635 38.95864288 -16.09336853 37.74806213 C-16.08774992 33.97784936 -16.07519426 30.20769496 -16.0625 26.4375 C-16.0574874 23.88867273 -16.05292408 21.33984453 -16.04882812 18.79101562 C-16.03777444 12.52732367 -16.02101821 6.26366601 -16 0 C-13.89651926 -0.19504458 -11.79217415 -0.38078496 -9.6875 -0.5625 C-8.51574219 -0.66691406 -7.34398437 -0.77132812 -6.13671875 -0.87890625 C-3 -1 -3 -1 0 0 Z " fill="#667AF4" transform="translate(315,38)"/>
<path d="M0 0 C0 1.65 0 3.3 0 5 C0.66 5.33 1.32 5.66 2 6 C1.68289062 7.26585937 1.36578125 8.53171875 1.0390625 9.8359375 C-0.59491586 18.00582929 -0.46871896 26.32419748 -0.625 34.625 C-0.66325702 36.31382052 -0.702313 38.00262314 -0.7421875 39.69140625 C-0.83733889 43.79412246 -0.92167039 47.89692957 -1 52 C-4.96 52 -8.92 52 -13 52 C-13 35.17 -13 18.34 -13 1 C-1 0 -1 0 0 0 Z " fill="#5569FB" transform="translate(155,38)"/>
<path d="M0 0 C4.37478537 1.73482868 5.48323959 3.31872997 7.625 7.4375 C8.96272277 11.2670593 8.73669074 15.18413037 8.6875 19.1875 C8.68298828 19.88488281 8.67847656 20.58226563 8.67382812 21.30078125 C8.6621002 23.01305803 8.64416653 24.72529033 8.625 26.4375 C4.41614753 26.32718914 0.20815446 26.19666008 -4 26.0625 C-5.18980469 26.0315625 -6.37960938 26.000625 -7.60546875 25.96875 C-8.75917969 25.93007812 -9.91289063 25.89140625 -11.1015625 25.8515625 C-12.15939941 25.8201416 -13.21723633 25.7887207 -14.30712891 25.75634766 C-17.56701999 25.41754312 -20.31257455 24.58139417 -23.375 23.4375 C-23.705 21.7875 -24.035 20.1375 -24.375 18.4375 C-21.66783758 17.53511253 -20.13723232 17.31898698 -17.36328125 17.33984375 C-16.22729492 17.34467773 -16.22729492 17.34467773 -15.06835938 17.34960938 C-14.28267578 17.35798828 -13.49699219 17.36636719 -12.6875 17.375 C-11.89021484 17.37951172 -11.09292969 17.38402344 -10.27148438 17.38867188 C-8.30595743 17.4004415 -6.34046915 17.41837652 -4.375 17.4375 C-4.43506078 15.97802295 -4.5238689 14.51970728 -4.625 13.0625 C-4.67140625 12.25039063 -4.7178125 11.43828125 -4.765625 10.6015625 C-5.1672092 8.24911073 -5.1672092 8.24911073 -7.421875 7.1484375 C-8.06640625 6.91382813 -8.7109375 6.67921875 -9.375 6.4375 C-9.045 5.4475 -8.715 4.4575 -8.375 3.4375 C-7.715 3.4375 -7.055 3.4375 -6.375 3.4375 C-6.045 2.4475 -5.715 1.4575 -5.375 0.4375 C-3.375 -0.5625 -3.375 -0.5625 0 0 Z " fill="#5569F9" transform="translate(126.375,43.5625)"/>
<path d="M0 0 C3.22620643 0.92177327 3.93512623 1.90157083 5.8125 4.75 C7.1802634 8.49335247 7.22900739 10.231044 6 14 C4.5 16.375 4.5 16.375 2 18 C-2.09271103 18.66957956 -5.66929059 18.5655515 -9.5 16.9375 C-11.72135775 14.06824625 -11.81198555 11.57227446 -12 8 C-11.5625 5.5625 -11.5625 5.5625 -11 4 C-10.34 4 -9.68 4 -9 4 C-9 3.34 -9 2.68 -9 2 C-5.51195905 -0.32536063 -4.09859246 -0.33457898 0 0 Z " fill="#5568F9" transform="translate(329,75)"/>
<path d="M0 0 C1.875 1.125 1.875 1.125 3 3 C3.82745636 6.86146303 4.25686099 9.22941703 3 13 C2.34 13 1.68 13 1 13 C1 13.66 1 14.32 1 15 C-1.98997825 16.49498913 -4.70042775 16.11577446 -8 16 C-11 15 -11 15 -12.1875 13.375 C-13.32267332 10.05680108 -13.37315568 7.48278632 -13 4 C-8.96677194 -1.10875554 -6.24807512 -1.31538424 0 0 Z " fill="#5469F8" transform="translate(312,18)"/>
<path d="M0 0 C4.29 0 8.58 0 13 0 C13 0.33 13 0.66 13 1 C9.04 1 5.08 1 1 1 C1 17.83 1 34.66 1 52 C4.96 52 8.92 52 13 52 C13 40.78 13 29.56 13 18 C13.99 17.67 14.98 17.34 16 17 C15.67 29.21 15.34 41.42 15 54 C10.05 54 5.1 54 0 54 C0 36.18 0 18.36 0 0 Z " fill="#6A79DC" transform="translate(141,38)"/>
<path d="M0 0 C0.66 0 1.32 0 2 0 C0.86646602 4.40818771 -1.17047317 6.46950116 -4.8767395 8.85542297 C-11.12100124 12.22149065 -18.44511851 12.30862099 -25.3828125 12.30078125 C-26.67057083 12.30720894 -26.67057083 12.30720894 -27.98434448 12.31376648 C-29.78431319 12.31946705 -31.58430491 12.32004191 -33.38427734 12.31567383 C-36.12507411 12.31249991 -38.86480382 12.33607419 -41.60546875 12.36132812 C-43.36458199 12.36360031 -45.12369809 12.36430499 -46.8828125 12.36328125 C-47.69340118 12.372491 -48.50398987 12.38170074 -49.33914185 12.39118958 C-54.61402006 12.34858858 -58.32679853 11.50205753 -63 9 C-63.33 8.34 -63.66 7.68 -64 7 C-61.36 7.33 -58.72 7.66 -56 8 C-56 8.66 -56 9.32 -56 10 C-50.14660184 9.8813062 -44.29335808 9.75702946 -38.44018555 9.62768555 C-36.4509601 9.58450129 -34.46170152 9.5428153 -32.47241211 9.50268555 C-29.60520463 9.44458102 -26.7381614 9.38100445 -23.87109375 9.31640625 C-22.54723915 9.29133751 -22.54723915 9.29133751 -21.19664001 9.26576233 C-16.37944551 9.15142803 -11.75427042 8.79190871 -7 8 C-6.67 6.68 -6.34 5.36 -6 4 C-4.68 4.33 -3.36 4.66 -2 5 C-2 4.34 -2 3.68 -2 3 C-1.34 3 -0.68 3 0 3 C0 2.01 0 1.02 0 0 Z " fill="#7685E2" transform="translate(73,81)"/>
<path d="M0 0 C5.55007795 -0.09938156 11.09963018 -0.1717096 16.65039062 -0.21972656 C18.53589916 -0.23975767 20.42134623 -0.26699073 22.30664062 -0.30175781 C25.02749862 -0.35065272 27.74753056 -0.37305382 30.46875 -0.390625 C31.30241089 -0.41127014 32.13607178 -0.43191528 32.99499512 -0.45318604 C38.71893515 -0.4553471 43.28434826 0.61975248 48 4 C50.46328846 7.6949327 50.69466527 10.71084582 50 15 C48.88342737 17.30596521 47.61597667 18.98002917 46 21 C45.34 19.68 44.68 18.36 44 17 C44.66 16.67 45.32 16.34 46 16 C46.68729254 13.88153715 46.68729254 13.88153715 47.125 11.4375 C47.29257813 10.61121094 47.46015625 9.78492188 47.6328125 8.93359375 C47.75398438 8.29550781 47.87515625 7.65742188 48 7 C47.38125 6.896875 46.7625 6.79375 46.125 6.6875 C44 6 44 6 42 3 C40.11185494 2.52640971 40.11185494 2.52640971 37.91748047 2.56762695 C36.65639969 2.53793571 36.65639969 2.53793571 35.36984253 2.50764465 C34.00727829 2.49805977 34.00727829 2.49805977 32.6171875 2.48828125 C31.68778351 2.47033005 30.75837952 2.45237885 29.80081177 2.43388367 C26.82558767 2.37960152 23.85052557 2.3458278 20.875 2.3125 C18.86065444 2.27934271 16.84633032 2.24485456 14.83203125 2.20898438 C9.88813744 2.12386485 4.94429318 2.05713939 0 2 C0 1.34 0 0.68 0 0 Z " fill="#90A0E6" transform="translate(32,12)"/>
<path d="M0 0 C1.875 1.125 1.875 1.125 3 3 C3.82745636 6.86146303 4.25686099 9.22941703 3 13 C2.34 13 1.68 13 1 13 C1 13.66 1 14.32 1 15 C-1.98997825 16.49498913 -4.70042775 16.11577446 -8 16 C-11 15 -11 15 -12.1875 13.375 C-13.32267332 10.05680108 -13.37315568 7.48278632 -13 4 C-8.96677194 -1.10875554 -6.24807512 -1.31538424 0 0 Z M-9 1 C-9.33 2.32 -9.66 3.64 -10 5 C-9.01 5.495 -9.01 5.495 -8 6 C-8.99 6.495 -8.99 6.495 -10 7 C-10 9.31 -10 11.62 -10 14 C-5.66831683 14.26252625 -2.1196377 13.29243536 2 12 C1.67 9.03 1.34 6.06 1 3 C0.34 3 -0.32 3 -1 3 C-1 2.34 -1 1.68 -1 1 C-3.64 1 -6.28 1 -9 1 Z " fill="#808EEC" transform="translate(312,18)"/>
<path d="M0 0 C0.33 0 0.66 0 1 0 C1.02505615 1.17506104 1.0501123 2.35012207 1.07592773 3.56079102 C1.17047571 7.9424023 1.27057859 12.32387247 1.37231445 16.70532227 C1.41548479 18.59754116 1.45717159 20.48979453 1.49731445 22.38208008 C1.55545319 25.11029424 1.61901936 27.83833772 1.68359375 30.56640625 C1.70030624 31.40522842 1.71701874 32.2440506 1.73423767 33.10829163 C1.85153106 37.81468507 2.25419145 42.34139877 3 47 C3.2652949 51.51001326 2.89233711 55.53831446 2 60 C-2.62 60 -7.24 60 -12 60 C-12 59.67 -12 59.34 -12 59 C-6.06 58.505 -6.06 58.505 0 58 C0 38.86 0 19.72 0 0 Z " fill="#5569EF" transform="translate(250,32)"/>
<path d="M0 0 C-0.350625 0.61875 -0.70125 1.2375 -1.0625 1.875 C-1.371875 2.57625 -1.68125 3.2775 -2 4 C-1.67 4.66 -1.34 5.32 -1 6 C-5.55426184 8.66590937 -8.73946963 9.31563182 -14 9 C-13.67 6.36 -13.34 3.72 -13 1 C-11.39796533 0.63631108 -9.79325797 0.28438048 -8.1875 -0.0625 C-7.29417969 -0.25972656 -6.40085937 -0.45695312 -5.48046875 -0.66015625 C-3 -1 -3 -1 0 0 Z " fill="#5569F9" transform="translate(107,39)"/>
<path d="M0 0 C0.66 0 1.32 0 2 0 C3.9231102 3.23082514 5.01351808 5.32409608 4.9375 9.125 C3.79896026 12.61652188 3.09824425 13.98614124 0 16 C-3.03031417 16.32393014 -5.96541179 16.23342986 -9 16 C-9.33 15.34 -9.66 14.68 -10 14 C-7.03 14 -4.06 14 -1 14 C-1.20625 12.80375 -1.4125 11.6075 -1.625 10.375 C-2.13581838 6.4423982 -1.56734717 3.6878757 0 0 Z " fill="#7480ED" transform="translate(331,77)"/>
<path d="M0 0 C0.68449219 0.00064453 1.36898438 0.00128906 2.07421875 0.00195312 C7.10932037 0.04682037 7.10932037 0.04682037 8.25 1.1875 C8.32226502 3.04037502 8.3338122 4.89583878 8.3125 6.75 C8.30347656 7.76191406 8.29445313 8.77382813 8.28515625 9.81640625 C8.27355469 10.59886719 8.26195312 11.38132812 8.25 12.1875 C7.26 12.5175 6.27 12.8475 5.25 13.1875 C4.92 12.5275 4.59 11.8675 4.25 11.1875 C4.91 11.1875 5.57 11.1875 6.25 11.1875 C6.25 8.2175 6.25 5.2475 6.25 2.1875 C3.70503311 2.41721198 1.1661014 2.67048409 -1.375 2.9375 C-2.44427734 3.0303125 -2.44427734 3.0303125 -3.53515625 3.125 C-8.66001647 3.68920479 -11.67210117 5.0229476 -15.75 8.1875 C-16.41 7.8575 -17.07 7.5275 -17.75 7.1875 C-12.18852026 1.149322 -8.0931424 -0.14814037 0 0 Z " fill="#919BE9" transform="translate(285.75,16.8125)"/>
<path d="M0 0 C1.98 0 3.96 0 6 0 C5.01 0.86625 5.01 0.86625 4 1.75 C1.55709077 3.99653977 1.55709077 3.99653977 2 8 C5.96 8.33 9.92 8.66 14 9 C14 12.96 14 16.92 14 21 C9.71 21 5.42 21 1 21 C1 20.67 1 20.34 1 20 C4.63 20 8.26 20 12 20 C12 17.36 12 14.72 12 12 C11.01 12 10.02 12 9 12 C9 11.34 9 10.68 9 10 C7.72125 10.20625 6.4425 10.4125 5.125 10.625 C2.9453125 10.9765625 2.9453125 10.9765625 1 11 C0.34 10.34 -0.32 9.68 -1 9 C-0.9765625 6.8359375 -0.9765625 6.8359375 -0.625 4.375 C-0.51414062 3.55773438 -0.40328125 2.74046875 -0.2890625 1.8984375 C-0.19367188 1.27195312 -0.09828125 0.64546875 0 0 Z " fill="#808BE9" transform="translate(280,29)"/>
<path d="M0 0 C0.33 0.99 0.66 1.98 1 3 C0.38125 3.226875 -0.2375 3.45375 -0.875 3.6875 C-3.66733034 5.41217462 -3.82759947 6.96555156 -5 10 C-6.53311588 12.19385269 -8.16542113 14.02782771 -10 16 C-10.66 16 -11.32 16 -12 16 C-12 16.66 -12 17.32 -12 18 C-13.32 18.33 -14.64 18.66 -16 19 C-16 22.96 -16 26.92 -16 31 C-16.33 31 -16.66 31 -17 31 C-17.624 19.31733333 -17.624 19.31733333 -15.3125 14.4375 C-13.01424813 12.0150183 -10.62312939 10.06103023 -8 8 C-6.38953641 6.2026431 -4.85268325 4.3620134 -3.33203125 2.48828125 C-2 1 -2 1 0 0 Z " fill="#727EE8" transform="translate(25,57)"/>
<path d="M0 0 C1.12591553 0.00523682 2.25183105 0.01047363 3.41186523 0.01586914 C4.62680664 0.0190918 5.84174805 0.02231445 7.09350586 0.02563477 C8.37290039 0.03401367 9.65229492 0.04239258 10.97045898 0.05102539 C12.2537207 0.05553711 13.53698242 0.06004883 14.85913086 0.06469727 C18.04211921 0.07652994 21.22501661 0.09301471 24.40795898 0.11352539 C24.40795898 0.44352539 24.40795898 0.77352539 24.40795898 1.11352539 C23.10342773 1.1509082 21.79889648 1.18829102 20.45483398 1.22680664 C7.11806859 1.69294849 -4.4941159 3.09511315 -16.59204102 9.11352539 C-16.92204102 7.46352539 -17.25204102 5.81352539 -17.59204102 4.11352539 C-17.26204102 4.77352539 -16.93204102 5.43352539 -16.59204102 6.11352539 C-15.60204102 6.11352539 -14.61204102 6.11352539 -13.59204102 6.11352539 C-13.59204102 5.45352539 -13.59204102 4.79352539 -13.59204102 4.11352539 C-12.88176758 3.90856445 -12.17149414 3.70360352 -11.43969727 3.49243164 C-10.5205957 3.22301758 -9.60149414 2.95360352 -8.65454102 2.67602539 C-7.73801758 2.40918945 -6.82149414 2.14235352 -5.87719727 1.86743164 C-0.25004166 0.01095125 -0.25004166 0.01095125 0 0 Z " fill="#6877D7" transform="translate(25.592041015625,29.886474609375)"/>
<path d="M0 0 C1.65 0 3.3 0 5 0 C3.76601019 3.70196942 2.10573384 4.31217164 -1.2109375 6.1328125 C-7.0751221 8.97527753 -14.31946492 8.96354952 -20.56640625 7.328125 C-22.40881108 6.62939544 -24.2109102 5.82573376 -26 5 C-26 4.67 -26 4.34 -26 4 C-25.03964844 4.16371094 -24.07929688 4.32742187 -23.08984375 4.49609375 C-18.57586275 5.14094818 -14.11378358 5.11017662 -9.5625 5.0625 C-8.32209961 5.05573242 -8.32209961 5.05573242 -7.05664062 5.04882812 C-5.03772854 5.03715811 -3.01885426 5.01922718 -1 5 C-0.67 3.35 -0.34 1.7 0 0 Z " fill="#7884E1" transform="translate(234,85)"/>
<path d="M0 0 C3.89198894 3.48230589 5.71346612 5.94916327 7 11 C7.13474123 13.66787642 7.19197861 16.21646441 7.125 18.875 C7.11597656 19.56335938 7.10695312 20.25171875 7.09765625 20.9609375 C7.07432513 22.64077838 7.03846326 24.32043746 7 26 C5.02 25.67 3.04 25.34 1 25 C1 24.67 1 24.34 1 24 C2.65 24 4.3 24 6 24 C6 23.34 6 22.68 6 22 C5.34 22 4.68 22 4 22 C4.33 19.36 4.66 16.72 5 14 C4.34 14 3.68 14 3 14 C2.67 10.7 2.34 7.4 2 4 C1.34 4 0.68 4 0 4 C0 2.68 0 1.36 0 0 Z " fill="#6E7EEA" transform="translate(128,44)"/>
<path d="M0 0 C0.33 0 0.66 0 1 0 C1.02578125 0.71285156 1.0515625 1.42570312 1.078125 2.16015625 C1.4547951 8.52074446 2.08510384 12.88888557 6 18 C8.5908295 19.49113354 8.5908295 19.49113354 11 20 C11 20.33 11 20.66 11 21 C9.02 21.33 7.04 21.66 5 22 C4.67 21.34 4.34 20.68 4 20 C2.68 20 1.36 20 0 20 C0.04125 19.113125 0.0825 18.22625 0.125 17.3125 C0.22552716 14.06850588 0.22552716 14.06850588 -1.125 11.6875 C-2.46384451 7.57533471 -1.1531641 4.07155632 0 0 Z " fill="#727FEF" transform="translate(212,59)"/>
<path d="M0 0 C3.39398034 0.2909126 5.03113751 1.02283417 7.8125 3.0625 C10.14424104 6.19369511 10.67080822 8.09626019 10.44140625 11.99609375 C9.71327154 15.30169646 8.1006433 17.37419588 6 20 C5.34 18.68 4.68 17.36 4 16 C4.66 15.67 5.32 15.34 6 15 C6.68729254 12.88153715 6.68729254 12.88153715 7.125 10.4375 C7.29257813 9.61121094 7.46015625 8.78492188 7.6328125 7.93359375 C7.75398438 7.29550781 7.87515625 6.65742188 8 6 C7.38640625 5.88785156 6.7728125 5.77570312 6.140625 5.66015625 C3.01061479 4.69487938 1.86309581 2.5950263 0 0 Z " fill="#8994E6" transform="translate(72,13)"/>
<path d="M0 0 C1 2 1 2 0.4765625 4.09375 C0.05503906 5.28484375 0.05503906 5.28484375 -0.375 6.5 C-0.65085937 7.2940625 -0.92671875 8.088125 -1.2109375 8.90625 C-2 11 -2 11 -3 13 C-3.07194869 15.88370333 -3.09291708 18.74239664 -3.0625 21.625 C-3.05798828 22.42679688 -3.05347656 23.22859375 -3.04882812 24.0546875 C-3.03703168 26.03649006 -3.01909605 28.01825433 -3 30 C-6.17309799 26.82690201 -5.3684775 23.1928979 -5.375 18.875 C-5.39949219 18.04484375 -5.42398438 17.2146875 -5.44921875 16.359375 C-5.47742283 10.3613068 -4.23809884 6.06395813 -1 1 C-0.67 0.67 -0.34 0.34 0 0 Z " fill="#7683E8" transform="translate(88,46)"/>
<path d="M0 0 C1.9375 0.375 1.9375 0.375 4 1 C5.4783226 3.95664519 5.06032783 6.74229737 5 10 C2.69 10 0.38 10 -2 10 C-2 9.67 -2 9.34 -2 9 C-7.61 8.67 -13.22 8.34 -19 8 C-19 7.67 -19 7.34 -19 7 C-11.74 7 -4.48 7 3 7 C2.01 4.69 1.02 2.38 0 0 Z " fill="#B1B8F6" transform="translate(117,51)"/>
<path d="M0 0 C0.33 1.32 0.66 2.64 1 4 C0.01 4.33 -0.98 4.66 -2 5 C-3.62531648 6.79935728 -5.18078244 8.66272568 -6.6875 10.5625 C-7.49574219 11.57441406 -8.30398437 12.58632813 -9.13671875 13.62890625 C-10.05904297 14.80259766 -10.05904297 14.80259766 -11 16 C-12.32 15.67 -13.64 15.34 -15 15 C-14.54109375 14.55269531 -14.0821875 14.10539062 -13.609375 13.64453125 C-10.85633163 10.93197382 -8.2215226 8.27848555 -5.8125 5.25 C-4.04730711 3.05872607 -2.31845332 1.57323618 0 0 Z " fill="#7D8BE9" transform="translate(47,35)"/>
<path d="M0 0 C9.57 0 19.14 0 29 0 C29 0.33 29 0.66 29 1 C19.76 1 10.52 1 1 1 C4.02839458 8.71058562 4.02839458 8.71058562 8 11 C6.35 10.67 4.7 10.34 3 10 C3 9.34 3 8.68 3 8 C2.01 7.67 1.02 7.34 0 7 C0 4.69 0 2.38 0 0 Z " fill="#8C9CED" transform="translate(98,69)"/>
<path d="M0 0 C0.66 0.66 1.32 1.32 2 2 C0.56445975 2.50559908 -0.8735202 3.0042749 -2.3125 3.5 C-3.51326172 3.91765625 -3.51326172 3.91765625 -4.73828125 4.34375 C-7 5 -7 5 -10 5 C-9.67 8.63 -9.34 12.26 -9 16 C-9.66 15.67 -10.32 15.34 -11 15 C-11.81309902 11.08234111 -12.37553268 7.82092412 -11 4 C-10.34 4 -9.68 4 -9 4 C-9 3.34 -9 2.68 -9 2 C-5.54754176 -0.30163882 -4.05261287 -0.34490322 0 0 Z " fill="#8A97E9" transform="translate(329,75)"/>
<path d="M0 0 C-0.66 2.97 -1.32 5.94 -2 9 C-2.33 9 -2.66 9 -3 9 C-3 7.35 -3 5.7 -3 4 C-3.56203125 4.16371094 -4.1240625 4.32742187 -4.703125 4.49609375 C-7.13059056 5.02864997 -9.26889681 5.09898681 -11.75 5.0625 C-12.54921875 5.05347656 -13.3484375 5.04445313 -14.171875 5.03515625 C-14.77515625 5.02355469 -15.3784375 5.01195313 -16 5 C-16 4.67 -16 4.34 -16 4 C-15.30132812 3.79503906 -14.60265625 3.59007813 -13.8828125 3.37890625 C-12.97273438 3.10949219 -12.06265625 2.84007813 -11.125 2.5625 C-10.22007813 2.29566406 -9.31515625 2.02882813 -8.3828125 1.75390625 C-2.83937824 0 -2.83937824 0 0 0 Z " fill="#7987EB" transform="translate(81,69)"/>
<path d="M0 0 C0.66 0 1.32 0 2 0 C2.02717692 2.06242617 2.0464758 4.12495703 2.0625 6.1875 C2.07410156 7.33605469 2.08570313 8.48460938 2.09765625 9.66796875 C2 13 2 13 1 18 C-3.62 18 -8.24 18 -13 18 C-13 17.67 -13 17.34 -13 17 C-9.04 16.67 -5.08 16.34 -1 16 C-0.67 10.72 -0.34 5.44 0 0 Z " fill="#8F99EA" transform="translate(251,74)"/>
<path d="M0 0 C4.62 0 9.24 0 14 0 C15 3 15 3 14.22265625 4.82421875 C13.1484375 6.54947917 12.07421875 8.27473958 11 10 C10.3125 8.3125 10.3125 8.3125 10 6 C10.99 4.35 11.98 2.7 13 1 C9.04 1 5.08 1 1 1 C0.34 2.32 -0.32 3.64 -1 5 C-2.32 4.67 -3.64 4.34 -5 4 C-4.360625 3.71125 -3.72125 3.4225 -3.0625 3.125 C-0.84793921 2.17176549 -0.84793921 2.17176549 0 0 Z " fill="#929BE3" transform="translate(120,75)"/>
<path d="M0 0 C-11.88 0.99 -11.88 0.99 -24 2 C-23 0 -23 0 -20.1875 -1.125 C-13.44867748 -2.88660091 -6.23169178 -3.11584589 0 0 Z " fill="#8F9DE9" transform="translate(119,38)"/>
<path d="M0 0 C6.93 0 13.86 0 21 0 C21.33 0.66 21.66 1.32 22 2 C22.99 2.33 23.98 2.66 25 3 C22.4345406 5.5654594 20.52313332 5.54046087 17 6 C17.66 4.35 18.32 2.7 19 1 C12.73 1 6.46 1 0 1 C0 0.67 0 0.34 0 0 Z " fill="#576BEB" transform="translate(31,29)"/>
<path d="M0 0 C3.32311195 0.18126065 5.98728092 0.39236855 8.875 2.125 C10.61437281 5.02395468 10.82110557 7.66063726 11 11 C10.01 12.485 10.01 12.485 9 14 C8.63720544 12.71073008 8.28503302 11.41846728 7.9375 10.125 C7.74027344 9.40570313 7.54304688 8.68640625 7.33984375 7.9453125 C7 6 7 6 8 4 C7.34 4 6.68 4 6 4 C6 3.34 6 2.68 6 2 C3.36 2 0.72 2 -2 2 C-1.34 1.34 -0.68 0.68 0 0 Z " fill="#929EED" transform="translate(305,17)"/>
<path d="M0 0 C0.66 0 1.32 0 2 0 C2.33 1.32 2.66 2.64 3 4 C2.34 4 1.68 4 1 4 C1 4.66 1 5.32 1 6 C-0.32 6.33 -1.64 6.66 -3 7 C-3 10.96 -3 14.92 -3 19 C-3.33 19 -3.66 19 -4 19 C-4.68855157 6.10878444 -4.68855157 6.10878444 -2.125 2.1875 C-1.42375 1.465625 -0.7225 0.74375 0 0 Z " fill="#8E99EB" transform="translate(12,69)"/>
<path d="M0 0 C0.99 0 1.98 0 3 0 C1.60249952 3.15835107 -0.05198234 5.32272825 -2.5 7.75 C-3.41265625 8.67039062 -3.41265625 8.67039062 -4.34375 9.609375 C-6 11 -6 11 -8 11 C-8 10.34 -8 9.68 -8 9 C-7.34 9 -6.68 9 -6 9 C-5.67 7.35 -5.34 5.7 -5 4 C-3.68 4 -2.36 4 -1 4 C-0.67 2.68 -0.34 1.36 0 0 Z " fill="#8898E6" transform="translate(66,41)"/>
<path d="M0 0 C0 0.33 0 0.66 0 1 C-0.65226562 1.18175781 -1.30453125 1.36351562 -1.9765625 1.55078125 C-6.92730011 2.97466596 -11.46546423 4.49407234 -16 7 C-16.33 5.35 -16.66 3.7 -17 2 C-16.67 2.66 -16.34 3.32 -16 4 C-15.01 4 -14.02 4 -13 4 C-13 3.34 -13 2.68 -13 2 C-8.49646738 0.24252386 -4.82360189 -0.19294408 0 0 Z " fill="#9EACE8" transform="translate(25,32)"/>
<path d="M0 0 C4.62 0 9.24 0 14 0 C14.66 1.32 15.32 2.64 16 4 C15.67 4.99 15.34 5.98 15 7 C14.896875 6.360625 14.79375 5.72125 14.6875 5.0625 C14.460625 4.381875 14.23375 3.70125 14 3 C11.32356043 2.10785348 9.74615622 1.86459789 7 1.875 C6.319375 1.87242188 5.63875 1.86984375 4.9375 1.8671875 C2.78125219 1.93368874 2.78125219 1.93368874 0 3 C0 2.01 0 1.02 0 0 Z " fill="#8590E8" transform="translate(159,49)"/>
<path d="M0 0 C1.98 0 3.96 0 6 0 C5.01 0.86625 5.01 0.86625 4 1.75 C1.55709077 3.99653977 1.55709077 3.99653977 2 8 C2.66 8.66 3.32 9.32 4 10 C2.68 10 1.36 10 0 10 C-0.33 9.67 -0.66 9.34 -1 9 C-0.91062197 7.47480724 -0.75462854 5.95318071 -0.5625 4.4375 C-0.46066406 3.61121094 -0.35882813 2.78492188 -0.25390625 1.93359375 C-0.17011719 1.29550781 -0.08632813 0.65742188 0 0 Z " fill="#747FEC" transform="translate(280,29)"/>
<path d="M0 0 C0.33 0 0.66 0 1 0 C1 1.98 1 3.96 1 6 C0.34 6 -0.32 6 -1 6 C-1 7.98 -1 9.96 -1 12 C-1.99 12 -2.98 12 -4 12 C-3.27272727 3.27272727 -3.27272727 3.27272727 0 0 Z " fill="#7581ED" transform="translate(13,24)"/>
<path d="M0 0 C0 0.99 0 1.98 0 3 C-0.639375 3.226875 -1.27875 3.45375 -1.9375 3.6875 C-4.23436474 4.82985584 -4.23436474 4.82985584 -4.6875 7.375 C-4.790625 8.24125 -4.89375 9.1075 -5 10 C-5.32483418 11.33542939 -5.6550855 12.66961551 -6 14 C-6.66 13.67 -7.32 13.34 -8 13 C-6.26666667 4.33333333 -6.26666667 4.33333333 -2 1 C-1.34 0.67 -0.68 0.34 0 0 Z " fill="#6975EA" transform="translate(273,22)"/>
<path d="M0 0 C0 0.66 0 1.32 0 2 C-0.61875 2.0825 -1.2375 2.165 -1.875 2.25 C-4.17469437 2.78131326 -4.17469437 2.78131326 -4.9375 4.9375 C-6 7 -6 7 -8.625 8.25 C-9.40875 8.4975 -10.1925 8.745 -11 9 C-9.23608757 4.5100411 -5.10838455 0 0 0 Z " fill="#828CEA" transform="translate(25,15)"/>
<path d="M0 0 C0.33 0 0.66 0 1 0 C1.144375 1.0725 1.28875 2.145 1.4375 3.25 C1.80856666 6.7874735 1.80856666 6.7874735 2.875 9.0625 C3.04132829 11.64058843 2.18377148 12.29077334 0.5625 14.25 C-0.283125 15.1575 -1.12875 16.065 -2 17 C-2 14 -2 14 -1 11 C-0.77820215 9.10787263 -0.59385985 7.21115528 -0.4375 5.3125 C-0.31181641 3.82169922 -0.31181641 3.82169922 -0.18359375 2.30078125 C-0.12300781 1.54152344 -0.06242188 0.78226563 0 0 Z " fill="#8991F4" transform="translate(237,59)"/>
<path d="M0 0 C0.66 0 1.32 0 2 0 C0.6302836 3.99500618 -1.25722422 6.80009492 -4 10 C-4 8.68 -4 7.36 -4 6 C-4.66 6 -5.32 6 -6 6 C-6 5.01 -6 4.02 -6 3 C-5.01 3 -4.02 3 -3 3 C-2.01 2.67 -1.02 2.34 0 2 C0 1.34 0 0.68 0 0 Z " fill="#7684EA" transform="translate(217,49)"/>
<path d="M0 0 C3.63 0 7.26 0 11 0 C11.33 0.99 11.66 1.98 12 3 C9.2780754 4.3609623 7.8168043 3.70366248 4.875 3.0625 C3.96492188 2.86785156 3.05484375 2.67320313 2.1171875 2.47265625 C1.41851562 2.31667969 0.71984375 2.16070312 0 2 C0 1.34 0 0.68 0 0 Z " fill="#7A88E9" transform="translate(106,47)"/>
<path d="M0 0 C0.99 0.33 1.98 0.66 3 1 C2.67 1.99 2.34 2.98 2 4 C1.97039859 6.80790474 2.06585928 9.5999723 2.16015625 12.40625 C2 15 2 15 0 18 C0 12.06 0 6.12 0 0 Z " fill="#5668E5" transform="translate(238,24)"/>
<path d="M0 0 C0.99 0 1.98 0 3 0 C1.50902342 3.7952131 -0.75700849 5.61042731 -4 8 C-4 6.35 -4 4.7 -4 3 C-3.01 2.67 -2.02 2.34 -1 2 C-0.67 1.34 -0.34 0.68 0 0 Z " fill="#8194E8" transform="translate(46,60)"/>
<path d="M0 0 C3.96 0 7.92 0 12 0 C12.33 1.32 12.66 2.64 13 4 C13.66 4.33 14.32 4.66 15 5 C14.01 5 13.02 5 12 5 C11.53980469 4.51917969 11.07960937 4.03835937 10.60546875 3.54296875 C8.51965133 1.53835103 7.15983533 1.51882865 4.3125 1.3125 C3.10013672 1.21388672 3.10013672 1.21388672 1.86328125 1.11328125 C0.94095703 1.05720703 0.94095703 1.05720703 0 1 C0 0.67 0 0.34 0 0 Z " fill="#A2ADEF" transform="translate(221,49)"/>
<path d="M0 0 C0.7425 0.78375 1.485 1.5675 2.25 2.375 C4.54433318 4.56504531 6.12158858 5.82731386 9 7 C7.02 7.33 5.04 7.66 3 8 C2.67 7.34 2.34 6.68 2 6 C0.68 6 -0.64 6 -2 6 C-2 5.34 -2 4.68 -2 4 C-1.01 4 -0.02 4 1 4 C0.67 2.68 0.34 1.36 0 0 Z " fill="#8F99EE" transform="translate(214,73)"/>
<path d="M0 0 C0.66 0 1.32 0 2 0 C1.67 1.32 1.34 2.64 1 4 C2.32 4.66 3.64 5.32 5 6 C4.38125 6.12375 3.7625 6.2475 3.125 6.375 C0.80879168 6.87197356 0.80879168 6.87197356 -1 9 C-1.09765625 2.84765625 -1.09765625 2.84765625 -1 1 C-0.67 0.67 -0.34 0.34 0 0 Z " fill="#697AEA" transform="translate(301,19)"/>
<path d="M0 0 C1.65 0 3.3 0 5 0 C3.75453595 3.73639216 2.36595047 4.18756513 -1 6 C-0.67 4.02 -0.34 2.04 0 0 Z " fill="#8D99EE" transform="translate(234,85)"/>
<path d="M0 0 C-0.66 2.97 -1.32 5.94 -2 9 C-3 5 -3 5 -2 2 C-3.32 1.67 -4.64 1.34 -6 1 C-4 0 -4 0 0 0 Z " fill="#9CA7E5" transform="translate(81,69)"/>
<path d="M0 0 C2.64 0.33 5.28 0.66 8 1 C8 1.99 8 2.98 8 4 C5.125 3.6875 5.125 3.6875 2 3 C1.34 2.01 0.68 1.02 0 0 Z " fill="#7884E7" transform="translate(9,88)"/>
<path d="M0 0 C0.33 0.66 0.66 1.32 1 2 C1.61875 1.79375 2.2375 1.5875 2.875 1.375 C3.57625 1.25125 4.2775 1.1275 5 1 C5.66 1.66 6.32 2.32 7 3 C6.38125 3.28875 5.7625 3.5775 5.125 3.875 C2.86674235 4.93720042 2.86674235 4.93720042 1 7 C0.67 4.69 0.34 2.38 0 0 Z " fill="#808EEF" transform="translate(99,47)"/>
<path d="M0 0 C0 0.66 0 1.32 0 2 C-2.64 2.33 -5.28 2.66 -8 3 C-8.33 2.34 -8.66 1.68 -9 1 C-6.04335481 -0.4783226 -3.25770263 -0.06032783 0 0 Z " fill="#5A6CE1" transform="translate(227,47)"/>
<path d="M0 0 C0.33 0 0.66 0 1 0 C0.67 2.31 0.34 4.62 0 7 C-1.32 6.34 -2.64 5.68 -4 5 C-2.69254251 3.31295807 -1.35827971 1.64639965 0 0 Z " fill="#7F8DF0" transform="translate(93,40)"/>
<path d="M0 0 C0.99 0.66 1.98 1.32 3 2 C1.25 6.875 1.25 6.875 -1 8 C-1.33 6.68 -1.66 5.36 -2 4 C-1.34 3.67 -0.68 3.34 0 3 C0 2.01 0 1.02 0 0 Z " fill="#7F8BEF" transform="translate(78,25)"/>
<path d="M0 0 C3 0 3 0 4.6875 1.5 C5.120625 1.995 5.55375 2.49 6 3 C5.67 3.99 5.34 4.98 5 6 C4.67 5.34 4.34 4.68 4 4 C3.01 4 2.02 4 1 4 C0.67 2.68 0.34 1.36 0 0 Z " fill="#6C7AEC" transform="translate(235,55)"/>
<path d="M0 0 C0.33 1.32 0.66 2.64 1 4 C0.34 4 -0.32 4 -1 4 C-1 4.66 -1 5.32 -1 6 C-2.32 5.67 -3.64 5.34 -5 5 C-3.35 3.35 -1.7 1.7 0 0 Z " fill="#7684EA" transform="translate(31,51)"/>
<path d="M0 0 C1.65 1.65 3.3 3.3 5 5 C4.34 6.32 3.68 7.64 3 9 C2.67 7.35 2.34 5.7 2 4 C1.34 4 0.68 4 0 4 C0 2.68 0 1.36 0 0 Z " fill="#838FEA" transform="translate(128,44)"/>
<path d="M0 0 C1.65 0 3.3 0 5 0 C5.33 0.66 5.66 1.32 6 2 C3.36 2.66 0.72 3.32 -2 4 C-1.34 2.68 -0.68 1.36 0 0 Z " fill="#707FF4" transform="translate(50,31)"/>
</svg>
